<svg xmlns="http://www.w3.org/2000/svg" viewBox="0 0 64 64" width="64" height="64">
  <title>ardvark</title>
  <rect width="64" height="64" rx="14" fill="#F6E7D8"/>
  <!-- head + snout silhouette -->
  <g transform="translate(32 33) scale(1.18) translate(-34.5 -25.5)">
  <path fill="#3D2C29" d="M21 23
    C21 17 23 11 27 8
    C29 6.5 31 8.5 30 11
    C28.5 14.5 28 19 28.5 22
    C37 23 46 29 53.5 37.5
    C56.5 41 55 45.5 50.5 44
    C43 41.5 35.5 39 29.5 40.5
    C23 42 16.5 39.5 14 33.5
    C12 28.5 15.5 24 21 23 Z"/>
  <!-- eye -->
  <circle cx="26.5" cy="29" r="2.6" fill="#FDF8F1"/>
  <!-- nose accent -->
  <circle cx="52" cy="41" r="3.6" fill="#E8734A"/>
  </g>
</svg>
